<?xml version="1.0" standalone="no"?>
<!DOCTYPE svg PUBLIC "-//W3C//DTD SVG 20010904//EN"
 "http://www.w3.org/TR/2001/REC-SVG-20010904/DTD/svg10.dtd">
<svg version="1.0" xmlns="http://www.w3.org/2000/svg"
 width="2000.000000pt" height="2000.000000pt" viewBox="0 0 2000.000000 2000.000000"
 preserveAspectRatio="xMidYMid meet">

<g transform="translate(0.000000,2000.000000) scale(0.100000,-0.100000)"
fill="#000000" stroke="none">
<path d="M12122 15658 l3 -453 448 -3 447 -2 0 455 0 455 -450 0 -450 0 2
-452z"/>
<path d="M13160 15205 l0 -305 305 0 305 0 0 305 0 305 -305 0 -305 0 0 -305z"/>
<path d="M11220 15015 l0 -375 375 0 375 0 0 375 0 375 -375 0 -375 0 0 -375z"/>
<path d="M12200 14635 l0 -305 310 0 310 0 0 305 0 305 -310 0 -310 0 0 -305z"/>
<path d="M9580 14433 c-489 -28 -904 -78 -1220 -148 -287 -63 -456 -119 -645
-211 -208 -102 -315 -208 -323 -322 -5 -72 14 -118 76 -184 185 -199 654 -359
1337 -457 390 -56 701 -75 1200 -75 604 0 983 31 1465 120 917 169 1338 469
1062 757 -76 80 -253 178 -449 250 l-88 33 -3 47 -3 47 -184 0 c-121 0 -207 5
-252 14 -262 55 -683 104 -1088 126 -163 9 -750 11 -885 3z"/>
<path d="M7397 13333 c-4 -3 -7 -277 -7 -607 0 -689 -5 -643 95 -741 203 -198
709 -362 1390 -450 405 -52 553 -60 1105 -60 507 0 602 4 970 41 620 61 1189
211 1466 386 64 41 143 117 172 167 l27 46 3 601 c3 691 7 662 -76 582 -75
-72 -137 -114 -246 -167 -370 -180 -990 -305 -1751 -351 -269 -17 -878 -15
-1152 4 -624 43 -1125 132 -1498 268 -200 73 -393 185 -446 259 -20 28 -39 36
-52 22z m4589 -759 c119 -57 155 -217 72 -318 -75 -92 -220 -102 -307 -23 -76
70 -80 217 -8 296 52 57 172 79 243 45z"/>
<path d="M7385 11758 c-3 -18 -5 -292 -3 -608 3 -536 4 -578 22 -612 55 -112
207 -223 423 -309 341 -136 801 -228 1423 -286 246 -23 1157 -26 1415 -5 809
66 1423 209 1741 408 94 58 187 157 203 215 9 33 11 197 9 634 -3 675 3 637
-91 548 -74 -69 -132 -107 -260 -168 -353 -168 -910 -280 -1672 -337 -254 -19
-1007 -16 -1265 6 -605 49 -1064 132 -1396 252 -227 82 -350 146 -451 238 -33
31 -68 56 -77 56 -9 0 -17 -12 -21 -32z m4593 -733 c76 -32 121 -102 122 -188
0 -61 -21 -107 -70 -151 -132 -119 -341 -21 -340 159 1 67 59 152 125 181 41
18 118 17 163 -1z"/>
<path d="M7397 10233 c-4 -3 -7 -277 -7 -607 0 -591 0 -602 21 -641 151 -288
867 -507 1929 -591 306 -25 1003 -25 1305 -1 778 63 1314 178 1667 358 168 87
259 169 294 266 10 30 13 155 14 615 0 317 -3 583 -6 592 -10 27 -34 18 -79
-29 -424 -436 -2268 -654 -3755 -444 -638 90 -1132 259 -1315 448 -38 40 -55
48 -68 34z m4615 -769 c124 -86 121 -274 -5 -348 -145 -85 -316 11 -317 177 0
59 19 103 64 146 69 67 181 78 258 25z"/>
<path d="M7035 5610 c-96 -20 -164 -63 -203 -129 -22 -38 -27 -58 -27 -117 0
-59 4 -77 26 -110 36 -54 117 -95 264 -133 139 -36 169 -54 173 -102 2 -27 -3
-40 -23 -59 -23 -22 -38 -25 -110 -28 -92 -4 -170 13 -244 54 -24 13 -45 23
-45 22 -1 -2 -14 -29 -29 -61 -15 -31 -27 -64 -27 -71 0 -19 92 -62 172 -81
82 -19 230 -19 295 0 155 46 240 187 188 313 -34 80 -95 116 -268 160 -170 43
-201 67 -182 139 4 17 20 31 52 45 61 27 164 21 254 -16 35 -14 66 -22 70 -18
8 10 49 112 49 123 0 15 -80 50 -149 65 -71 15 -172 17 -236 4z"/>
<path d="M7881 5610 c-188 -40 -326 -194 -338 -378 -10 -136 32 -247 126 -335
56 -52 103 -78 186 -102 44 -13 78 -33 129 -76 82 -70 131 -95 210 -110 94
-17 189 8 249 66 31 30 33 25 -31 97 l-24 26 -35 -24 c-64 -43 -133 -43 -187
-1 l-28 23 64 32 c81 40 149 111 191 200 30 62 32 75 31 167 0 78 -5 112 -22
155 -45 112 -132 196 -250 240 -65 25 -202 35 -271 20z m234 -184 c87 -52 131
-141 122 -251 -7 -99 -66 -185 -149 -219 -52 -22 -162 -20 -213 3 -94 42 -151
146 -143 259 9 119 68 197 178 233 50 17 155 4 205 -25z"/>
<path d="M9901 5610 c-188 -40 -326 -194 -338 -378 -10 -136 32 -247 126 -335
56 -52 103 -78 186 -102 44 -13 78 -33 129 -76 82 -70 131 -95 210 -110 94
-17 189 8 249 66 31 30 33 25 -31 97 l-24 26 -35 -24 c-64 -43 -133 -43 -187
-1 l-28 23 64 32 c81 40 149 111 191 200 30 62 32 75 31 167 0 78 -5 112 -22
155 -45 112 -132 196 -250 240 -65 25 -202 35 -271 20z m234 -184 c87 -52 131
-141 122 -251 -7 -99 -66 -185 -149 -219 -52 -22 -162 -20 -213 3 -94 42 -151
146 -143 259 9 119 68 197 178 233 50 17 155 4 205 -25z"/>
<path d="M8580 5200 l0 -410 295 0 295 0 0 75 0 75 -205 0 -205 0 0 335 0 335
-90 0 -90 0 0 -410z"/>
<path d="M11607 5419 c-67 -10 -149 -53 -186 -95 -57 -64 -74 -111 -79 -209
-4 -86 -3 -93 30 -155 61 -119 165 -175 323 -174 104 0 184 26 228 72 l27 28
-49 48 -49 49 -34 -24 c-45 -32 -166 -39 -218 -12 -31 16 -80 74 -80 94 0 5
106 9 236 9 l237 0 -5 83 c-6 109 -36 167 -119 230 -65 49 -168 71 -262 56z
m126 -143 c39 -16 87 -70 87 -97 0 -18 -9 -19 -150 -19 -141 0 -150 1 -150 19
0 27 47 81 85 97 39 17 88 17 128 0z"/>
<path d="M12450 5420 c-62 -11 -91 -23 -128 -55 l-32 -27 0 41 0 41 -85 0 -85
0 0 -315 0 -315 90 0 90 0 0 178 c0 149 3 182 18 211 25 50 63 74 127 79 l55
4 0 84 c0 46 -1 83 -2 83 -2 -1 -23 -5 -48 -9z"/>
<path d="M10582 5188 c3 -216 5 -236 25 -273 42 -78 103 -118 201 -131 65 -8
140 10 192 47 l40 29 0 -35 0 -35 85 0 85 0 0 315 0 315 -90 0 -90 0 0 -182
c0 -203 -11 -246 -69 -281 -32 -19 -96 -22 -135 -7 -54 20 -61 46 -66 265 l-5
200 -88 3 -88 3 3 -233z"/>
<path d="M12550 5412 c0 -4 59 -144 130 -310 72 -167 130 -311 130 -320 0 -9
-10 -30 -23 -45 -28 -36 -90 -46 -135 -23 -17 9 -36 16 -41 16 -6 0 -24 -27
-41 -59 l-29 -59 22 -15 c43 -27 99 -39 170 -35 87 4 140 29 183 86 28 36 334
734 334 762 0 7 -27 10 -82 8 l-83 -3 -85 -202 c-47 -111 -88 -205 -91 -208
-5 -4 -120 261 -169 391 -9 23 -13 24 -100 24 -49 0 -90 -3 -90 -8z"/>
<path d="M7840 3800 l0 -410 95 0 95 0 0 115 0 116 87 -3 87 -3 76 -110 77
-110 102 -3 103 -3 -19 28 c-11 15 -52 74 -91 130 -40 56 -72 104 -72 106 0 3
13 10 30 17 38 16 95 78 116 127 20 47 23 164 5 217 -19 55 -92 130 -152 155
-66 29 -178 41 -376 41 l-163 0 0 -410z m451 227 c93 -62 87 -189 -12 -239
-26 -14 -59 -18 -141 -18 l-108 0 0 140 0 140 114 0 c101 0 117 -2 147 -23z"/>
<path d="M9815 4019 c-49 -6 -85 -21 -132 -55 -23 -16 -23 -16 -23 20 l0 36
-85 0 -85 0 0 -315 0 -315 90 0 90 0 0 183 c0 153 3 187 18 217 37 73 131 102
199 60 54 -33 58 -47 61 -262 l4 -198 89 0 89 0 0 189 c0 103 -5 213 -10 242
-27 145 -144 220 -305 198z"/>
<path d="M10619 4019 c-47 -7 -123 -41 -134 -59 -13 -21 -25 -9 -25 25 l0 35
-85 0 -85 0 0 -315 0 -315 89 0 89 0 4 188 c3 203 11 234 63 268 36 24 104 29
146 11 61 -25 69 -56 69 -276 l0 -191 91 0 90 0 -3 233 c-3 217 -4 235 -25
274 -51 95 -160 142 -284 122z"/>
<path d="M11327 4019 c-67 -10 -149 -53 -186 -95 -57 -64 -74 -111 -79 -209
-4 -86 -3 -93 30 -155 61 -119 165 -175 323 -174 104 0 184 26 228 72 l27 28
-49 48 -49 49 -34 -24 c-45 -32 -166 -39 -218 -12 -31 16 -80 74 -80 94 0 5
106 9 236 9 l237 0 -5 83 c-6 109 -36 167 -119 230 -65 49 -168 71 -262 56z
m126 -143 c39 -16 87 -70 87 -97 0 -18 -9 -19 -150 -19 -141 0 -150 1 -150 19
0 27 47 81 85 97 39 17 88 17 128 0z"/>
<path d="M8680 3822 c0 -222 12 -293 59 -352 80 -99 272 -117 370 -34 l31 26
0 -36 0 -36 90 0 90 0 -2 313 -3 312 -86 3 -87 3 -4 -188 c-5 -209 -12 -237
-71 -273 -40 -25 -109 -26 -148 -3 -50 30 -59 72 -59 278 l0 185 -90 0 -90 0
0 -198z"/>
<path d="M11840 3705 l0 -315 90 0 90 0 0 173 c0 159 2 176 23 217 27 53 74
80 139 80 l48 0 0 80 0 80 -42 0 c-48 0 -121 -30 -155 -62 l-23 -21 0 41 0 42
-85 0 -85 0 0 -315z"/>
</g>
</svg>
